<?xml version="1.0" standalone="no"?>
<!DOCTYPE svg PUBLIC "-//W3C//DTD SVG 20010904//EN"
 "http://www.w3.org/TR/2001/REC-SVG-20010904/DTD/svg10.dtd">
<svg version="1.0" xmlns="http://www.w3.org/2000/svg"
 width="619.000000pt" height="472.000000pt" viewBox="0 0 619.000000 472.000000"
 preserveAspectRatio="xMidYMid meet">

<g transform="translate(0.000000,472.000000) scale(0.100000,-0.100000)"
fill="#000000" stroke="none">
<path d="M4976 4358 c-28 -55 -53 -123 -62 -168 l-15 -75 35 -32 c32 -30 42
-33 96 -33 33 0 60 4 60 8 0 5 -11 42 -25 82 -21 62 -25 92 -25 192 0 65 -4
118 -9 118 -5 0 -30 -42 -55 -92z"/>
<path d="M4305 4364 c-189 -25 -264 -44 -520 -136 -241 -86 -322 -127 -400
-200 -67 -62 -111 -115 -102 -124 2 -2 42 10 88 27 76 28 92 30 161 25 93 -6
114 0 237 72 115 67 163 76 228 41 23 -13 43 -31 43 -39 0 -29 -59 -87 -117
-115 -116 -56 -272 -116 -485 -186 -206 -67 -217 -72 -207 -91 22 -40 94 -61
249 -70 80 -5 171 -16 202 -24 106 -26 147 -16 209 53 37 42 97 159 86 170 -4
3 -53 -12 -110 -35 -56 -23 -106 -42 -110 -42 -14 0 25 58 66 98 43 41 56 43
218 28 l86 -9 144 50 c79 28 185 61 234 73 50 13 95 27 101 32 15 11 25 90 25
197 0 107 -27 170 -81 187 -38 13 -197 24 -245 18z"/>
<path d="M5205 4036 c-68 -17 -88 -29 -164 -100 -36 -34 -87 -79 -114 -100
l-47 -39 -163 7 c-263 11 -430 -19 -551 -99 -77 -51 -110 -101 -110 -170 -1
-29 2 -56 5 -60 13 -13 86 16 192 76 l108 62 53 -37 c29 -20 55 -36 59 -36 3
0 38 24 77 54 78 58 155 99 228 122 55 16 181 18 233 4 42 -12 66 -52 99 -167
11 -40 31 -85 44 -100 l24 -28 15 37 c8 20 40 79 71 131 93 158 102 200 60
283 l-26 52 21 47 c12 26 21 54 21 61 0 18 -64 17 -135 0z"/>
<path d="M1355 3459 c-151 -19 -353 -85 -470 -154 -28 -16 -52 -40 -65 -65
-37 -72 -28 -73 93 -10 103 54 124 60 262 86 123 23 181 28 322 29 172 2 173
2 213 30 23 16 50 41 60 55 l19 27 -67 7 c-90 8 -281 6 -367 -5z"/>
<path d="M3085 3410 c-66 -4 -122 -8 -124 -9 -12 -4 28 -32 82 -57 60 -27 69
-28 292 -35 230 -7 230 -7 365 -47 194 -57 184 -58 188 5 4 66 -18 110 -64
129 -41 17 -541 27 -739 14z"/>
<path d="M468 3093 c-29 -5 -96 -68 -140 -134 -49 -73 -69 -176 -49 -248 9
-32 52 -64 75 -55 10 4 38 48 62 98 47 97 81 136 117 136 13 0 58 -22 102 -50
69 -44 86 -50 132 -50 44 0 58 5 87 31 38 33 52 77 41 127 -5 27 -17 35 -98
70 -144 63 -254 88 -329 75z"/>
<path d="M5280 2786 c-137 -51 -238 -101 -324 -160 -113 -77 -166 -70 -266 36
l-60 63 0 -61 c0 -84 9 -121 35 -146 22 -21 212 -94 340 -130 78 -22 144 -19
197 7 43 22 164 148 189 197 11 21 22 58 25 82 7 48 -3 156 -14 156 -4 -1 -59
-20 -122 -44z"/>
<path d="M880 2734 c-148 -122 -207 -249 -169 -365 15 -43 85 -139 103 -139 7
0 22 19 32 42 10 24 40 75 66 115 72 111 90 152 95 218 4 52 1 67 -24 114 -15
30 -33 56 -38 57 -6 2 -35 -17 -65 -42z"/>
<path d="M1095 2440 c-39 -64 -125 -247 -125 -267 0 -8 29 -3 93 14 50 14 102
28 115 30 29 7 44 44 37 92 -20 121 -46 191 -71 191 -7 0 -29 -27 -49 -60z"/>
<path d="M5391 2124 c-165 -36 -502 -179 -611 -259 -73 -53 -115 -125 -174
-300 -29 -85 -65 -172 -79 -194 l-26 -39 -88 -7 c-239 -17 -312 -38 -533 -146
-193 -95 -232 -108 -385 -125 -71 -8 -249 -36 -395 -60 -346 -59 -507 -84
-550 -84 -82 0 -465 207 -561 303 -17 17 -75 85 -129 151 -54 67 -116 139
-139 161 l-42 40 -64 -34 c-87 -47 -172 -112 -201 -154 l-24 -36 108 -73 c177
-122 418 -315 463 -371 22 -29 66 -95 96 -147 148 -256 192 -305 328 -371 121
-58 268 -112 380 -141 73 -18 120 -20 540 -23 492 -4 598 3 704 45 28 11 73
29 100 40 28 11 130 33 228 50 199 34 294 60 368 99 50 26 50 26 280 25 244 0
278 -5 535 -74 62 -17 83 -19 123 -10 104 22 190 91 234 187 22 48 26 74 30
187 6 150 -3 214 -46 321 -37 91 -80 160 -179 285 -109 138 -126 180 -125 307
l1 102 -65 7 c-139 14 -263 -15 -317 -75 -19 -20 -18 -21 10 -63 16 -23 72
-88 124 -145 208 -227 254 -289 294 -395 22 -57 17 -83 -26 -127 -68 -70 -217
-111 -403 -111 -277 0 -448 144 -480 404 -12 94 53 408 89 431 12 8 77 28 145
45 152 38 211 67 278 136 51 53 96 81 164 103 51 16 89 60 96 110 3 22 2 41
-3 40 -5 -1 -38 -7 -73 -15z"/>
</g>
</svg>
