<?xml version="1.0" encoding="UTF-8" standalone="no"?>
<svg
   xmlns:dc="http://purl.org/dc/elements/1.1/"
   xmlns:cc="http://creativecommons.org/ns#"
   xmlns:rdf="http://www.w3.org/1999/02/22-rdf-syntax-ns#"
   xmlns:svg="http://www.w3.org/2000/svg"
   xmlns="http://www.w3.org/2000/svg"
   xmlns:sodipodi="http://sodipodi.sourceforge.net/DTD/sodipodi-0.dtd"
   xmlns:inkscape="http://www.inkscape.org/namespaces/inkscape"
   viewBox="0 0 700 700"
   version="1.1"
   id="svg10"
   sodipodi:docname="canva-logo.svg"
   width="700"
   height="700"
   inkscape:export-filename="C:\Users\alex\sites\canva-logo-0.png"
   inkscape:export-xdpi="561.73712"
   inkscape:export-ydpi="561.73712"
   inkscape:version="0.92.3 (2405546, 2018-03-11)">
  <metadata
     id="metadata16">
    <rdf:RDF>
      <cc:Work
         rdf:about="">
        <dc:format>image/svg+xml</dc:format>
        <dc:type
           rdf:resource="http://purl.org/dc/dcmitype/StillImage" />
        <dc:title></dc:title>
      </cc:Work>
    </rdf:RDF>
  </metadata>
  <defs
     id="defs14" />
  <sodipodi:namedview
     pagecolor="#ffffff"
     bordercolor="#666666"
     borderopacity="1"
     objecttolerance="10"
     gridtolerance="10"
     guidetolerance="10"
     inkscape:pageopacity="0"
     inkscape:pageshadow="2"
     inkscape:window-width="1600"
     inkscape:window-height="838"
     id="namedview12"
     showgrid="false"
     inkscape:zoom="0.59599"
     inkscape:cx="290.32889"
     inkscape:cy="211.1118"
     inkscape:window-x="-8"
     inkscape:window-y="-8"
     inkscape:window-maximized="1"
     inkscape:current-layer="svg10" />
  <g
     id="g8"
     style="fill:none;fill-rule:evenodd"
     transform="matrix(7.2321275,0,0,7.2321275,96.875537,96.875538)"
     inkscape:export-filename="C:\Users\alex\sites\canva-logo-4.png"
     inkscape:export-xdpi="75.85202"
     inkscape:export-ydpi="75.85202">
    <path
       d="M 35,0 C 15.67,0 0,15.67 0,35 0,54.33 15.67,70 35,70 54.33,70 70,54.33 70,35 70,15.67 54.33,0 35,0 Z"
       id="path2"
       inkscape:connector-curvature="0"
       style="fill:#00c4cc" />
    <path
       d="m 58.4,36 c -0.4,0 -1.1,-0.1 -1.1,-0.5 0,-0.4 0.9,-0.2 0.8,-1.1 -0.1,-0.6 -0.7,-0.8 -1.3,-0.8 -2,0 -3.3,2.6 -3,4.7 0.1,0.8 0.5,1.7 1.3,1.7 0.6,0 1.5,-0.9 1.9,-2.2 0.2,-0.8 1,-1.5 1.7,-1.5 0.3,0 0.5,0.1 0.6,0.5 0,0.2 0,0.6 -0.4,1.9 -0.5,0.9 -0.5,1.4 -0.4,1.8 0.1,0.8 0.5,1.4 0.9,1.7 0.1,0.1 0.2,0.3 0.2,0.3 0,0.2 -0.1,0.4 -0.4,0.4 -0.1,0 -0.2,0 -0.3,-0.1 -1.5,-0.6 -2.1,-1.6 -2.3,-2.6 -0.6,0.7 -1.3,1.1 -2.1,1.1 -1.3,0 -2.6,-1.2 -2.8,-2.7 -0.07,-0.602 0.02,-1.25 0.217,-1.893 -0.593,0.38 -1.23,0.593 -1.816,0.593 h -0.5 c -1.3,1.9 -2.7,3.2 -3.7,3.8 -0.4,0.2 -0.8,0.3 -1.1,0.3 -0.2,0 -0.5,-0.1 -0.6,-0.3 -0.275,-0.444 -0.454,-1.146 -0.563,-1.947 -1.403,1.537 -3.34,2.347 -4.236,2.347 -1,0 -1.6,-0.6 -1.7,-1.6 v -1.1 c 0.3,-2.2 1.1,-3.5 1.1,-3.9 0,-0.1 -0.1,-0.2 -0.2,-0.2 -0.7,0 -3,2.4 -3.4,4 l -0.3,1.3 c -0.2,0.9 -1.1,1.5 -1.7,1.5 -0.3,0 -0.5,-0.1 -0.6,-0.5 v -0.4 l 0.136,-0.68 c -1.268,0.904 -2.54,1.48 -3.135,1.48 -0.9,0 -1.4,-0.5 -1.5,-1.2 -0.6,0.8 -1.3,1.2 -2.2,1.2 -1.026,0 -2.03,-0.7 -2.515,-1.727 -0.71,0.8 -1.523,1.61 -2.483,2.228 -1.4,0.9 -3,1.6 -4.9,1.6 -1.7,0 -3.2,-0.9 -4,-1.7 -1.2,-1.1 -1.9,-2.8 -2,-4.4 -0.6,-4.9 2.4,-11.2 7,-14 1.1,-0.6 2.2,-1 3.3,-1 2.2,0 3.9,1.6 4.1,3.5 0.2,1.7 -0.5,3.2 -2.4,4.1 -1,0.5 -1.4,0.5 -1.6,0.2 -0.1,-0.2 0,-0.4 0.2,-0.6 1.8,-1.5 1.8,-2.7 1.6,-4.4 -0.1,-1.1 -0.9,-1.8 -1.7,-1.8 -3.5,0 -8.5,7.8 -7.8,13.5 0.3,2.2 1.6,4.8 4.4,4.8 0.9,0 1.9,-0.3 2.8,-0.7 1.46,-0.77 2.33,-1.37 3.2,-2.33 -0.213,-2.583 2.054,-5.97 5.4,-5.97 1.5,0 2.7,0.6 2.8,1.7 0.2,1.5 -1.1,1.7 -1.5,1.7 -0.4,0 -1.1,-0.1 -1.1,-0.5 -0.1,-0.4 0.9,-0.2 0.8,-1.1 -0.1,-0.6 -0.7,-0.8 -1.3,-0.8 -2.1,0 -3.3,2.9 -3,4.7 0.1,0.8 0.5,1.6 1.3,1.6 0.6,0 1.5,-0.9 1.8,-2.2 0.2,-0.9 1,-1.5 1.7,-1.5 0.3,0 0.5,0.1 0.6,0.5 v 0.4 c -0.1,0.4 -0.4,1.6 -0.3,1.9 0,0.2 0.1,0.5 0.5,0.5 0.265,0 1.27,-0.526 2.264,-1.34 0.34,-1.72 0.737,-3.785 0.737,-3.958 0.1,-0.7 0.4,-1.4 1.8,-1.4 0.3,0 0.5,0.1 0.6,0.5 v 0.4 l -0.4,1.8 c 1.3,-1.7 3.2,-2.9 4.4,-2.9 0.5,0 0.9,0.3 0.9,0.8 0,0.3 0,0.8 -0.2,1.3 -0.4,1.1 -0.9,2.8 -1.2,4.3 0,0.4 0.1,0.8 0.6,0.8 0.5,0 2,-0.6 3.2,-2.2 l 0.02,-0.012 c -0.006,-0.196 -0.02,-0.39 -0.02,-0.587 0,-1.2 0.1,-2.2 0.3,-2.9 0.2,-0.8 1.2,-1.5 1.8,-1.5 0.3,0 0.6,0.2 0.6,0.5 0,0.1 0,0.3 -0.1,0.4 -0.4,1.3 -0.7,2.5 -0.7,3.7 0,0.7 0.1,1.7 0.3,2.3 0,0.1 0.1,0.2 0.2,0.2 0.2,0 1.6,-1.3 2.6,-3 -0.9,-0.6 -1.4,-1.6 -1.4,-2.8 0,-2.1 1.3,-3.2 2.5,-3.2 1,0 1.8,0.7 1.8,2.1 0,0.9 -0.3,1.9 -0.8,2.8 h 0.3 c 0.8,0 1.3,-0.3 1.7,-0.7 a 0.854,0.854 0 0 1 0.393,-0.34 c 0.976,-1.24 2.42,-2.16 4.11,-2.16 1.4,0 2.697,0.6 2.8,1.7 0.2,1.5 -1.102,1.8 -1.503,1.8 z"
       id="path4"
       inkscape:connector-curvature="0"
       style="fill:#ffffff" />
    <path
       d="m 48.8,32 c -0.3,0 -0.5,0.5 -0.5,1 0,0.8 0.4,1.7 0.9,2.2 0.2,-0.6 0.3,-1.1 0.3,-1.7 0,-1 -0.4,-1.5 -0.7,-1.5"
       id="path6"
       inkscape:connector-curvature="0"
       style="fill:#00c4cc" />
  </g>
</svg>
